<mxfile host="app.diagrams.net" modified="2020-12-16T20:39:27.275Z" agent="5.0 (Windows NT 10.0; Win64; x64) AppleWebKit/537.36 (KHTML, like Gecko) Chrome/87.0.4280.88 Safari/537.36" etag="LzdEFdF7f5OhNmDufVEj" version="14.0.4" type="github">
  <diagram name="Page-1" id="b5b7bab2-c9e2-2cf4-8b2a-24fd1a2a6d21">
    <mxGraphModel dx="1483" dy="1998" grid="1" gridSize="10" guides="1" tooltips="1" connect="1" arrows="1" fold="1" page="1" pageScale="1" pageWidth="827" pageHeight="1169" background="#ffffff" math="0" shadow="0">
      <root>
        <mxCell id="0" />
        <mxCell id="1" parent="0" />
        <mxCell id="_1ffijMydd8Sgu4h1URk-38" style="edgeStyle=orthogonalEdgeStyle;rounded=0;orthogonalLoop=1;jettySize=auto;html=1;exitX=1;exitY=0.75;exitDx=0;exitDy=0;entryX=-0.008;entryY=0.069;entryDx=0;entryDy=0;entryPerimeter=0;" edge="1" parent="1" source="_1ffijMydd8Sgu4h1URk-1" target="_1ffijMydd8Sgu4h1URk-8">
          <mxGeometry relative="1" as="geometry">
            <Array as="points">
              <mxPoint x="290" y="133" />
              <mxPoint x="290" y="180" />
              <mxPoint x="839" y="180" />
            </Array>
          </mxGeometry>
        </mxCell>
        <mxCell id="_1ffijMydd8Sgu4h1URk-39" value="informacje o wychowywanej klasi" style="edgeLabel;html=1;align=center;verticalAlign=middle;resizable=0;points=[];" vertex="1" connectable="0" parent="_1ffijMydd8Sgu4h1URk-38">
          <mxGeometry x="-0.3261" y="4" relative="1" as="geometry">
            <mxPoint as="offset" />
          </mxGeometry>
        </mxCell>
        <mxCell id="_1ffijMydd8Sgu4h1URk-1" value="klasy w szkole" style="shape=internalStorage;whiteSpace=wrap;html=1;backgroundOutline=1;dx=10;dy=10;" vertex="1" parent="1">
          <mxGeometry x="60" y="50" width="150" height="110" as="geometry" />
        </mxCell>
        <mxCell id="_1ffijMydd8Sgu4h1URk-16" value="plan zajęć dla danej klasy" style="edgeStyle=orthogonalEdgeStyle;rounded=0;orthogonalLoop=1;jettySize=auto;html=1;exitX=0.5;exitY=0;exitDx=0;exitDy=0;entryX=0.5;entryY=1;entryDx=0;entryDy=0;" edge="1" parent="1" source="_1ffijMydd8Sgu4h1URk-2" target="_1ffijMydd8Sgu4h1URk-1">
          <mxGeometry relative="1" as="geometry" />
        </mxCell>
        <mxCell id="_1ffijMydd8Sgu4h1URk-31" style="edgeStyle=orthogonalEdgeStyle;rounded=0;orthogonalLoop=1;jettySize=auto;html=1;exitX=0;exitY=0.25;exitDx=0;exitDy=0;entryX=0;entryY=0.5;entryDx=0;entryDy=0;" edge="1" parent="1" source="_1ffijMydd8Sgu4h1URk-2" target="_1ffijMydd8Sgu4h1URk-25">
          <mxGeometry relative="1" as="geometry" />
        </mxCell>
        <mxCell id="_1ffijMydd8Sgu4h1URk-32" value="oceny z poszczególnych przedmiotów danego ucznia" style="edgeLabel;html=1;align=center;verticalAlign=middle;resizable=0;points=[];" vertex="1" connectable="0" parent="_1ffijMydd8Sgu4h1URk-31">
          <mxGeometry x="-0.0979" y="-1" relative="1" as="geometry">
            <mxPoint x="179" y="-95.5" as="offset" />
          </mxGeometry>
        </mxCell>
        <mxCell id="_1ffijMydd8Sgu4h1URk-2" value="przedmioty&lt;br&gt;(bez języków obcych)" style="shape=internalStorage;whiteSpace=wrap;html=1;backgroundOutline=1;dx=10;dy=10;" vertex="1" parent="1">
          <mxGeometry x="60" y="220" width="150" height="110" as="geometry" />
        </mxCell>
        <mxCell id="_1ffijMydd8Sgu4h1URk-10" style="edgeStyle=orthogonalEdgeStyle;rounded=0;orthogonalLoop=1;jettySize=auto;html=1;exitX=0;exitY=0.25;exitDx=0;exitDy=0;entryX=1;entryY=0.25;entryDx=0;entryDy=0;" edge="1" parent="1" source="_1ffijMydd8Sgu4h1URk-3" target="_1ffijMydd8Sgu4h1URk-1">
          <mxGeometry relative="1" as="geometry" />
        </mxCell>
        <mxCell id="_1ffijMydd8Sgu4h1URk-21" style="edgeStyle=orthogonalEdgeStyle;rounded=0;orthogonalLoop=1;jettySize=auto;html=1;exitX=0.25;exitY=0;exitDx=0;exitDy=0;entryX=0.5;entryY=1;entryDx=0;entryDy=0;" edge="1" parent="1" source="_1ffijMydd8Sgu4h1URk-3" target="_1ffijMydd8Sgu4h1URk-6">
          <mxGeometry relative="1" as="geometry" />
        </mxCell>
        <mxCell id="_1ffijMydd8Sgu4h1URk-22" value="dany uczeń uczy się francuskiego" style="edgeLabel;html=1;align=center;verticalAlign=middle;resizable=0;points=[];" vertex="1" connectable="0" parent="_1ffijMydd8Sgu4h1URk-21">
          <mxGeometry x="0.5222" y="3" relative="1" as="geometry">
            <mxPoint as="offset" />
          </mxGeometry>
        </mxCell>
        <mxCell id="_1ffijMydd8Sgu4h1URk-23" style="edgeStyle=orthogonalEdgeStyle;rounded=0;orthogonalLoop=1;jettySize=auto;html=1;exitX=0.75;exitY=0;exitDx=0;exitDy=0;entryX=0.75;entryY=1;entryDx=0;entryDy=0;" edge="1" parent="1" source="_1ffijMydd8Sgu4h1URk-3" target="_1ffijMydd8Sgu4h1URk-7">
          <mxGeometry relative="1" as="geometry" />
        </mxCell>
        <mxCell id="_1ffijMydd8Sgu4h1URk-24" value="dany uczeń uczy się angielskiego" style="edgeLabel;html=1;align=center;verticalAlign=middle;resizable=0;points=[];" vertex="1" connectable="0" parent="_1ffijMydd8Sgu4h1URk-23">
          <mxGeometry x="0.4933" y="1" relative="1" as="geometry">
            <mxPoint as="offset" />
          </mxGeometry>
        </mxCell>
        <mxCell id="_1ffijMydd8Sgu4h1URk-3" value="uczniowie w danej&lt;br&gt;klasie" style="shape=internalStorage;whiteSpace=wrap;html=1;backgroundOutline=1;dx=10;dy=10;" vertex="1" parent="1">
          <mxGeometry x="490" y="50" width="150" height="110" as="geometry" />
        </mxCell>
        <mxCell id="_1ffijMydd8Sgu4h1URk-17" value="czy nauczyciel prowadzi przedmiot" style="edgeStyle=orthogonalEdgeStyle;rounded=0;orthogonalLoop=1;jettySize=auto;html=1;exitX=0;exitY=0.25;exitDx=0;exitDy=0;entryX=1;entryY=0.25;entryDx=0;entryDy=0;" edge="1" parent="1" source="_1ffijMydd8Sgu4h1URk-4" target="_1ffijMydd8Sgu4h1URk-2">
          <mxGeometry relative="1" as="geometry">
            <Array as="points">
              <mxPoint x="490" y="310" />
              <mxPoint x="210" y="310" />
            </Array>
          </mxGeometry>
        </mxCell>
        <mxCell id="_1ffijMydd8Sgu4h1URk-19" style="edgeStyle=orthogonalEdgeStyle;rounded=0;orthogonalLoop=1;jettySize=auto;html=1;exitX=0;exitY=0.25;exitDx=0;exitDy=0;entryX=1;entryY=1;entryDx=0;entryDy=0;" edge="1" parent="1" source="_1ffijMydd8Sgu4h1URk-4" target="_1ffijMydd8Sgu4h1URk-1">
          <mxGeometry relative="1" as="geometry">
            <Array as="points">
              <mxPoint x="490" y="220" />
              <mxPoint x="240" y="220" />
              <mxPoint x="240" y="160" />
            </Array>
          </mxGeometry>
        </mxCell>
        <mxCell id="_1ffijMydd8Sgu4h1URk-20" value="wychowawca klasy" style="edgeLabel;html=1;align=center;verticalAlign=middle;resizable=0;points=[];" vertex="1" connectable="0" parent="_1ffijMydd8Sgu4h1URk-19">
          <mxGeometry x="0.1286" y="1" relative="1" as="geometry">
            <mxPoint as="offset" />
          </mxGeometry>
        </mxCell>
        <mxCell id="_1ffijMydd8Sgu4h1URk-4" value="nauczyciele" style="shape=internalStorage;whiteSpace=wrap;html=1;backgroundOutline=1;dx=10;dy=10;" vertex="1" parent="1">
          <mxGeometry x="490" y="220" width="150" height="110" as="geometry" />
        </mxCell>
        <mxCell id="_1ffijMydd8Sgu4h1URk-13" style="edgeStyle=orthogonalEdgeStyle;rounded=0;orthogonalLoop=1;jettySize=auto;html=1;exitX=0;exitY=0.25;exitDx=0;exitDy=0;entryX=1;entryY=0.25;entryDx=0;entryDy=0;" edge="1" parent="1" source="_1ffijMydd8Sgu4h1URk-5" target="_1ffijMydd8Sgu4h1URk-3">
          <mxGeometry relative="1" as="geometry" />
        </mxCell>
        <mxCell id="_1ffijMydd8Sgu4h1URk-14" value="dany uczeń jest gospodarzem" style="edgeLabel;html=1;align=center;verticalAlign=middle;resizable=0;points=[];" vertex="1" connectable="0" parent="_1ffijMydd8Sgu4h1URk-13">
          <mxGeometry x="0.3341" y="-1" relative="1" as="geometry">
            <mxPoint x="33" y="-16.5" as="offset" />
          </mxGeometry>
        </mxCell>
        <mxCell id="_1ffijMydd8Sgu4h1URk-5" value="Gospodarze klas" style="shape=internalStorage;whiteSpace=wrap;html=1;backgroundOutline=1;dx=10;dy=10;" vertex="1" parent="1">
          <mxGeometry x="810" y="50" width="150" height="110" as="geometry" />
        </mxCell>
        <mxCell id="_1ffijMydd8Sgu4h1URk-30" value="oceny francuski" style="edgeStyle=orthogonalEdgeStyle;rounded=0;orthogonalLoop=1;jettySize=auto;html=1;exitX=0.75;exitY=0;exitDx=0;exitDy=0;entryX=0.25;entryY=1;entryDx=0;entryDy=0;" edge="1" parent="1" source="_1ffijMydd8Sgu4h1URk-6" target="_1ffijMydd8Sgu4h1URk-25">
          <mxGeometry relative="1" as="geometry">
            <Array as="points">
              <mxPoint x="490" y="-160" />
              <mxPoint x="490" y="-180" />
              <mxPoint x="518" y="-180" />
            </Array>
          </mxGeometry>
        </mxCell>
        <mxCell id="_1ffijMydd8Sgu4h1URk-6" value="lekcje francuskiego" style="shape=internalStorage;whiteSpace=wrap;html=1;backgroundOutline=1;dx=10;dy=10;" vertex="1" parent="1">
          <mxGeometry x="370" y="-160" width="150" height="110" as="geometry" />
        </mxCell>
        <mxCell id="_1ffijMydd8Sgu4h1URk-28" style="edgeStyle=orthogonalEdgeStyle;rounded=0;orthogonalLoop=1;jettySize=auto;html=1;exitX=0.75;exitY=0;exitDx=0;exitDy=0;entryX=0.75;entryY=1;entryDx=0;entryDy=0;" edge="1" parent="1" source="_1ffijMydd8Sgu4h1URk-7" target="_1ffijMydd8Sgu4h1URk-25">
          <mxGeometry relative="1" as="geometry" />
        </mxCell>
        <mxCell id="_1ffijMydd8Sgu4h1URk-29" value="oceny angielski" style="edgeLabel;html=1;align=center;verticalAlign=middle;resizable=0;points=[];" vertex="1" connectable="0" parent="_1ffijMydd8Sgu4h1URk-28">
          <mxGeometry x="-0.3062" relative="1" as="geometry">
            <mxPoint as="offset" />
          </mxGeometry>
        </mxCell>
        <mxCell id="_1ffijMydd8Sgu4h1URk-7" value="lekcje angielskiego" style="shape=internalStorage;whiteSpace=wrap;html=1;backgroundOutline=1;dx=10;dy=10;" vertex="1" parent="1">
          <mxGeometry x="570" y="-160" width="150" height="110" as="geometry" />
        </mxCell>
        <mxCell id="_1ffijMydd8Sgu4h1URk-18" value="czy jest wychowawcą danej klasy" style="edgeStyle=orthogonalEdgeStyle;rounded=0;orthogonalLoop=1;jettySize=auto;html=1;exitX=0;exitY=0.25;exitDx=0;exitDy=0;entryX=1;entryY=0.25;entryDx=0;entryDy=0;" edge="1" parent="1" source="_1ffijMydd8Sgu4h1URk-8" target="_1ffijMydd8Sgu4h1URk-4">
          <mxGeometry relative="1" as="geometry" />
        </mxCell>
        <mxCell id="_1ffijMydd8Sgu4h1URk-34" style="edgeStyle=orthogonalEdgeStyle;rounded=0;orthogonalLoop=1;jettySize=auto;html=1;exitX=1;exitY=0.25;exitDx=0;exitDy=0;entryX=1;entryY=0.25;entryDx=0;entryDy=0;" edge="1" parent="1" source="_1ffijMydd8Sgu4h1URk-8" target="_1ffijMydd8Sgu4h1URk-33">
          <mxGeometry relative="1" as="geometry" />
        </mxCell>
        <mxCell id="_1ffijMydd8Sgu4h1URk-35" value="ocena z zachowania ucznia" style="edgeLabel;html=1;align=center;verticalAlign=middle;resizable=0;points=[];" vertex="1" connectable="0" parent="_1ffijMydd8Sgu4h1URk-34">
          <mxGeometry x="0.4344" y="-2" relative="1" as="geometry">
            <mxPoint as="offset" />
          </mxGeometry>
        </mxCell>
        <mxCell id="_1ffijMydd8Sgu4h1URk-8" value="wychowawcy" style="shape=internalStorage;whiteSpace=wrap;html=1;backgroundOutline=1;dx=10;dy=10;" vertex="1" parent="1">
          <mxGeometry x="840" y="220" width="150" height="110" as="geometry" />
        </mxCell>
        <mxCell id="_1ffijMydd8Sgu4h1URk-11" value="czy uczeń jest w danej klasie" style="text;html=1;align=center;verticalAlign=middle;resizable=0;points=[];autosize=1;" vertex="1" parent="1">
          <mxGeometry x="270" y="60" width="170" height="20" as="geometry" />
        </mxCell>
        <mxCell id="_1ffijMydd8Sgu4h1URk-27" value="średnia ocen danego ucznia z danego przedmiotu" style="edgeStyle=orthogonalEdgeStyle;rounded=0;orthogonalLoop=1;jettySize=auto;html=1;exitX=0.5;exitY=0;exitDx=0;exitDy=0;entryX=0.5;entryY=1;entryDx=0;entryDy=0;" edge="1" parent="1" source="_1ffijMydd8Sgu4h1URk-25" target="_1ffijMydd8Sgu4h1URk-26">
          <mxGeometry relative="1" as="geometry">
            <Array as="points">
              <mxPoint x="555" y="-330" />
              <mxPoint x="575" y="-330" />
            </Array>
          </mxGeometry>
        </mxCell>
        <mxCell id="_1ffijMydd8Sgu4h1URk-25" value="oceny cząstkowe" style="shape=internalStorage;whiteSpace=wrap;html=1;backgroundOutline=1;dx=10;dy=10;" vertex="1" parent="1">
          <mxGeometry x="500" y="-340" width="150" height="110" as="geometry" />
        </mxCell>
        <mxCell id="_1ffijMydd8Sgu4h1URk-26" value="oceny końcowe" style="shape=internalStorage;whiteSpace=wrap;html=1;backgroundOutline=1;dx=10;dy=10;" vertex="1" parent="1">
          <mxGeometry x="500" y="-540" width="150" height="110" as="geometry" />
        </mxCell>
        <mxCell id="_1ffijMydd8Sgu4h1URk-36" style="edgeStyle=orthogonalEdgeStyle;rounded=0;orthogonalLoop=1;jettySize=auto;html=1;exitX=0.25;exitY=0;exitDx=0;exitDy=0;entryX=1;entryY=0.5;entryDx=0;entryDy=0;" edge="1" parent="1" source="_1ffijMydd8Sgu4h1URk-33" target="_1ffijMydd8Sgu4h1URk-26">
          <mxGeometry relative="1" as="geometry" />
        </mxCell>
        <mxCell id="_1ffijMydd8Sgu4h1URk-37" value="ocena za sprawowanie" style="edgeLabel;html=1;align=center;verticalAlign=middle;resizable=0;points=[];" vertex="1" connectable="0" parent="_1ffijMydd8Sgu4h1URk-36">
          <mxGeometry x="0.2408" relative="1" as="geometry">
            <mxPoint as="offset" />
          </mxGeometry>
        </mxCell>
        <mxCell id="_1ffijMydd8Sgu4h1URk-33" value="ocena sprawowanie" style="shape=internalStorage;whiteSpace=wrap;html=1;backgroundOutline=1;dx=10;dy=10;" vertex="1" parent="1">
          <mxGeometry x="820" y="-330" width="150" height="110" as="geometry" />
        </mxCell>
      </root>
    </mxGraphModel>
  </diagram>
</mxfile>
